<svg class="sp-ico" xmlns="http://www.w3.org/2000/svg" viewBox="0 0 120 120" width="120" height="120" role="img" aria-label="soil icon">
<style>
  .sp-ico{ --seosaw-ink:#2b3038; --seosaw-accent:#bf6a27; --seosaw-muted:#aeb4be; --seosaw-mass:#2b3038; }
  .sp-ico .ink  { fill:none; stroke:var(--seosaw-ink,#2b3038); stroke-width:3; stroke-linecap:round; stroke-linejoin:round; }
  .sp-ico .fine { fill:none; stroke:var(--seosaw-ink,#2b3038); stroke-width:2; stroke-linecap:round; stroke-linejoin:round; }
  .sp-ico .mass { fill:var(--seosaw-mass,#2b3038); fill-opacity:.07; stroke:none; }
  .sp-ico .dot  { fill:var(--seosaw-ink,#2b3038); }
  .sp-ico .flame{ fill:var(--seosaw-accent,#bf6a27); fill-opacity:.16; stroke:var(--seosaw-accent,#bf6a27); stroke-width:3; stroke-linecap:round; stroke-linejoin:round; }
  .sp-ico .ember{ fill:var(--seosaw-accent,#bf6a27); }
  .sp-ico.muted .ink, .sp-ico.muted .fine { stroke:var(--seosaw-muted,#aeb4be); }
  .sp-ico.muted .mass { fill:var(--seosaw-muted,#aeb4be); }
</style>
<g transform="translate(60,96) scale(0.8)">
    <path class="mass" d="M-30,1 L30,1 L30,20 Q30,24 26,24 L-26,24 Q-30,24 -30,20 Z"/>
    <path class="ink"  d="M-30,1 L30,1 L30,20 Q30,24 26,24 L-26,24 Q-30,24 -30,20 Z"/>
    <path class="fine" d="M-30,9 L30,9"/>
    <path class="fine" d="M-30,16 L30,16"/>
    <circle class="dot" cx="-16" cy="5" r="1.5"/>
    <circle class="dot" cx="6"  cy="5" r="1.5"/>
    <circle class="dot" cx="18" cy="6" r="1.5"/>
    <circle class="dot" cx="-8" cy="13" r="1.5"/>
    <circle class="dot" cx="13" cy="13" r="1.5"/>
    <circle class="dot" cx="0"  cy="19" r="1.5"/>
</g>
</svg>
